<?xml version="1.0" encoding="UTF-8" standalone="no"?>
<!-- Created with Inkscape (http://www.inkscape.org/) -->

<svg
   xmlns:dc="http://purl.org/dc/elements/1.1/"
   xmlns:cc="http://creativecommons.org/ns#"
   xmlns:rdf="http://www.w3.org/1999/02/22-rdf-syntax-ns#"
   xmlns:svg="http://www.w3.org/2000/svg"
   xmlns="http://www.w3.org/2000/svg"
   version="1.1"
   width="300"
   height="161.50877"
   id="svg2"
   xml:space="preserve"><metadata
     id="metadata8"><rdf:RDF><cc:Work
         rdf:about=""><dc:format>image/svg+xml</dc:format><dc:type
           rdf:resource="http://purl.org/dc/dcmitype/StillImage" /><dc:title></dc:title></cc:Work></rdf:RDF></metadata><defs
     id="defs6"><clipPath
       id="clipPath18"><path
         d="m 36,478.64 540,0 0,277.36 -540,0 0,-277.36 z"
         id="path20" /></clipPath><clipPath
       id="clipPath26"><path
         d="m 138.105,550.103 322.3517,0 0,173.5421 -322.3517,0 0,-173.5421 z"
         id="path28" /></clipPath></defs><g
     transform="matrix(1.25,0,0,-1.25,-169.13302,461.50878)"
     id="g10"><path
       d="m 36,478.64 540,0 0,277.36 -540,0 0,-277.36 z"
       id="path12"
       style="fill:#ffffff;fill-opacity:1;fill-rule:nonzero;stroke:none" /><g
       transform="matrix(0.74452841,0,0,0.74452841,32.483317,-169.56731)"
       id="g14"><g
         clip-path="url(#clipPath18)"
         id="g16"><g
           id="g22"><g
             clip-path="url(#clipPath26)"
             id="g24"><path
               d="m 299.4916,677.5568 c 0.9887,1.7659 1.6878,3.461 2.1184,5.107 1.9638,0.5531 3.6857,1.2665 5.193,2.151 1.8621,-1.0655 3.6424,-1.8096 5.3711,-2.2587 0.5587,-2.0025 1.2889,-3.7254 2.1707,-5.2259 -0.9857,-1.7597 -1.6832,-3.4501 -2.1162,-5.0916 -2.0206,-0.559 -3.7735,-1.2991 -5.3126,-2.2058 -1.8053,1.0155 -3.5333,1.7319 -5.2104,2.1692 -0.5649,2.0595 -1.3094,3.822 -2.214,5.3548 z m 52.5819,-6.477 c -0.1834,0.0285 -0.3578,0.0537 -0.539,0.0822 -3.3323,1.7922 -6.2453,3.7277 -8.695,5.7717 4.7978,5.3173 12.3419,16.0454 2.2889,27.7232 l -0.7642,0.8884 -0.7074,-0.5164 c -3.932,-1.2058 -7.6404,-1.9488 -11.0493,-2.2213 -0.445,7.2348 -2.9304,19.6258 -17.9602,20.7502 l -1.1684,0.0873 -0.1812,-1.1587 c -0.0106,-0.0652 -0.0182,-0.1274 -0.0303,-0.1914 -1.8538,-3.4582 -3.863,-6.478 -5.989,-8.9981 -3.9518,3.4889 -9.3009,7.0985 -15.5386,7.0985 -4.1815,0 -8.2257,-1.6582 -12.0213,-4.9283 l -0.8885,-0.7653 0.6914,-0.9455 c 0.1077,-0.1485 0.2123,-0.2894 0.3192,-0.4357 1.0653,-3.6066 1.7401,-7.0241 2.0085,-10.1875 -7.1415,-0.3629 -20.1022,-2.5931 -21.2524,-17.9892 l -0.0887,-1.1687 1.1586,-0.1811 c 0.3055,-0.0477 0.602,-0.0915 0.9037,-0.1381 3.2285,-1.7667 6.0649,-3.6718 8.4525,-5.6813 -4.7972,-5.3051 -12.3928,-16.0454 -2.3171,-27.7535 l 0.765,-0.8886 0.947,0.6913 c 0.2206,0.1606 0.4322,0.3183 0.6498,0.4779 3.5893,1.0591 6.9929,1.7319 10.1485,2.0003 0.373,-7.1593 2.6408,-20.0404 17.983,-21.186 l 1.1684,-0.0872 0.1819,1.1586 c 0.0379,0.2479 0.0728,0.489 0.1115,0.7346 1.7772,3.2649 3.6939,6.1278 5.7206,8.5359 3.9745,-3.5476 9.4085,-7.2939 15.7622,-7.2939 0.002,0 0.002,0 0.002,0 4.1808,0 8.2265,1.6567 12.0213,4.9267 l 0.8901,0.765 -0.6907,0.9455 c -0.1585,0.2176 -0.3131,0.4261 -0.4716,0.6407 -1.0577,3.5719 -1.7317,6.9587 -2.0107,10.1 7.1445,0.3594 20.1082,2.5867 21.2591,17.988 l 0.0895,1.1687"
               id="path30"
               style="fill:#ffffff;fill-opacity:1;fill-rule:nonzero;stroke:none" /><path
               d="m 345.067,672.0931 c -2.126,0.2825 -4.1466,0.5235 -6.0823,0.73 0.6733,0.7675 1.3133,1.4443 1.8501,1.9933 0.0819,0.0833 0.1706,0.1747 0.2577,0.2633 1.2185,-1.0237 2.5476,-2.02 3.9745,-2.9866"
               id="path32"
               style="fill:#6ec72e;fill-opacity:1;fill-rule:nonzero;stroke:none" /><path
               d="m 338.3267,701.0605 c -1.96,-1.4923 -3.7941,-2.9306 -5.5182,-4.3244 -0.0652,0.9962 -0.0872,1.9151 -0.0979,2.6859 -0.002,0.2581 -0.005,0.5468 -0.01,0.8497 1.8037,0.1402 3.6818,0.4023 5.6259,0.7888"
               id="path34"
               style="fill:#00adef;fill-opacity:1;fill-rule:nonzero;stroke:none" /><path
               d="m 333.136,693.6859 -0.006,0.0455 c 3.161,2.5981 6.7533,5.3733 10.8158,8.3617 7.9322,-10.1924 1.0448,-19.3989 -4.9238,-25.5 -0.8666,-0.8841 -1.9751,-2.0532 -3.101,-3.4701 -4.0132,0.3598 -7.6017,0.5446 -10.7809,0.5446 -3.8569,0 -7.1809,-0.2562 -10.059,-0.7786 0.4837,1.3795 1.179,2.8078 2.1017,4.3008 0.0349,0.0559 0.0698,0.1111 0.1039,0.1677 0.075,0.12 0.1547,0.24 0.2313,0.3611 2.9304,4.4603 7.8723,9.55 15.0752,15.5168"
               id="path36"
               style="fill:#00adef;fill-opacity:1;fill-rule:nonzero;stroke:none" /><path
               d="m 313.8451,706.7141 0.0652,0.7023 -0.0151,0.0115 c 0.3988,4.0505 0.9742,8.5264 1.7302,13.4806 12.8143,-1.6 14.4528,-12.9786 14.5468,-21.5161 0.0137,-1.2495 0.0606,-2.8637 0.2601,-4.6141 -4.9996,-4.186 -8.899,-7.9458 -11.8128,-11.4029 -0.1941,-0.2289 -0.3837,-0.4565 -0.5687,-0.6831 -0.8051,-0.981 -1.5345,-1.9376 -2.1798,-2.8688 -0.5345,1.1122 -0.9894,2.3564 -1.3609,3.7452 l -0.0902,0.3606 c -1.3254,5.311 -1.5149,12.7642 -0.5748,22.7848"
               id="path38"
               style="fill:#6ec72e;fill-opacity:1;fill-rule:nonzero;stroke:none" /><path
               d="m 312.3242,715.7936 c -0.3033,-2.2609 -0.5611,-4.4107 -0.7795,-6.4669 -0.7612,0.6697 -1.439,1.3091 -1.9902,1.8477 -0.1335,0.1303 -0.2737,0.2655 -0.4125,0.3988 1.0918,1.2887 2.1548,2.6977 3.1822,4.2204"
               id="path40"
               style="fill:#6ec72e;fill-opacity:1;fill-rule:nonzero;stroke:none" /><path
               d="m 291.7398,717.855 c 6.6009,0 12.3139,-4.8487 16.0389,-8.4957 0.8864,-0.8682 2.0571,-1.9773 3.4681,-3.0983 -0.3412,-3.8374 -0.5171,-7.2996 -0.5247,-10.4193 0,-0.003 0,-0.007 0,-0.01 -0.002,-0.4151 0,-0.8234 0.004,-1.2262 0.002,-0.1422 0.004,-0.2784 0.008,-0.4187 0.004,-0.2603 0.008,-0.5206 0.0167,-0.7767 0.008,-0.307 0.0182,-0.6068 0.0304,-0.9056 0.002,-0.0826 0.005,-0.1658 0.007,-0.2462 0.1077,-2.5338 0.3458,-4.8127 0.7165,-6.846 -1.1001,0.3843 -2.2329,0.9067 -3.402,1.5675 l -0.6673,0.4006 c -1.7521,1.0529 -3.6037,2.4283 -5.5697,4.1411 -0.0189,0.0171 -0.0387,0.0345 -0.0569,0.0508 -0.2517,0.2206 -0.5057,0.4494 -0.7619,0.6812 -0.1084,0.0974 -0.2176,0.1951 -0.3276,0.2958 -0.1039,0.0966 -0.2092,0.1962 -0.3154,0.2947 -5.1307,4.7869 -11.0333,11.8006 -18.1225,21.441 3.048,2.3705 6.2241,3.57 9.4578,3.57"
               id="path42"
               style="fill:#00adef;fill-opacity:1;fill-rule:nonzero;stroke:none" /><path
               d="m 287.5083,703.3107 c -1.0433,-0.0711 -1.9918,-0.0921 -2.7811,-0.1003 -0.1046,-0.001 -0.2229,-0.003 -0.3359,-0.004 -0.1288,1.5885 -0.3525,3.2334 -0.6718,4.9289 1.3011,-1.7018 2.562,-3.3056 3.7888,-4.8246"
               id="path44"
               style="fill:#00adef;fill-opacity:1;fill-rule:nonzero;stroke:none" /><path
               d="m 263.2535,686.1768 c 1.6256,12.7661 12.9804,14.4017 21.5003,14.4932 1.2427,0.0123 2.8569,0.0552 4.6515,0.2624 5.6281,-6.7375 10.5337,-11.5274 14.9168,-14.5605 -1.3579,-0.6486 -2.9198,-1.1751 -4.6887,-1.5816 -0.0629,-0.0144 -0.1274,-0.0285 -0.1903,-0.0429 -0.232,-0.0518 -0.4678,-0.1014 -0.7059,-0.148 -0.2107,-0.043 -0.4246,-0.0816 -0.6399,-0.1201 -0.135,-0.0244 -0.2646,-0.0499 -0.3988,-0.0721 -2.5938,-0.4301 -5.5743,-0.6427 -9.0347,-0.6427 -3.2709,0 -7.0399,0.1985 -11.2009,0.5886 l -0.7021,0.0652 -0.0152,-0.0204 c -4.0018,0.3895 -8.4319,0.9534 -13.3481,1.6996 -0.0485,0.0264 -0.0947,0.0531 -0.144,0.0793"
               id="path46"
               style="fill:#6ec72e;fill-opacity:1;fill-rule:nonzero;stroke:none" /><path
               d="m 268.9324,682.7452 c 2.0631,-0.2724 4.0245,-0.5053 5.9048,-0.7055 -0.6649,-0.7564 -1.2995,-1.4291 -1.8356,-1.9781 -0.0727,-0.0744 -0.1539,-0.1566 -0.2319,-0.2358 -1.1791,1.0003 -2.4596,1.974 -3.8373,2.9194"
               id="path48"
               style="fill:#6ec72e;fill-opacity:1;fill-rule:nonzero;stroke:none" /><path
               d="m 269.9279,652.8152 c -0.0167,-0.006 -0.0334,-0.01 -0.0508,-0.0152 -7.9194,10.1943 -1.0304,19.3898 4.9404,25.4845 0.8682,0.8886 1.9736,2.0577 3.0874,3.4583 3.976,-0.3558 7.5327,-0.5369 10.6899,-0.5369 0.002,0 0.002,0 0.002,0 3.901,0 7.2576,0.2644 10.1584,0.8012 -0.7278,-2.0817 -1.9387,-4.2753 -3.6772,-6.6317 -3.0071,-4.0231 -7.5608,-8.5467 -13.8228,-13.7361 l -0.5436,-0.4502 0.004,-0.0325 c -3.1526,-2.5918 -6.7351,-5.3611 -10.7877,-8.3414"
               id="path50"
               style="fill:#00adef;fill-opacity:1;fill-rule:nonzero;stroke:none" /><path
               d="m 276.2384,654.3765 c 1.6931,1.2972 3.2883,2.5537 4.8002,3.7773 0.0682,-1.05 0.0887,-1.9863 0.0963,-2.6996 7e-4,-0.1281 0.003,-0.2685 0.005,-0.4088 -1.5816,-0.128 -3.2155,-0.3517 -4.901,-0.6689"
               id="path52"
               style="fill:#00adef;fill-opacity:1;fill-rule:nonzero;stroke:none" /><path
               d="m 298.2209,633.9653 c -12.8159,1.5967 -14.4543,12.9788 -14.5461,21.5152 -0.0121,1.1324 -0.0515,2.7892 -0.2615,4.6291 3.3224,2.7832 6.1603,5.3792 8.5441,7.8212 2.4763,2.5249 4.4726,4.889 6.0156,7.1184 0.5914,-1.225 1.0796,-2.6126 1.4701,-4.1719 l 0.0122,-0.0478 c 0.4101,-1.6444 0.7134,-3.4955 0.906,-5.5642 0.004,-0.0489 0.008,-0.0986 0.0129,-0.1485 0.0303,-0.3344 0.0568,-0.6767 0.0811,-1.0237 0.008,-0.1096 0.0167,-0.2203 0.0228,-0.3302 0.0181,-0.2725 0.0341,-0.5487 0.0462,-0.8274 0.0106,-0.1811 0.0205,-0.361 0.0281,-0.5446 0.007,-0.1577 0.0106,-0.3195 0.0166,-0.4779 0.2396,-7.0097 -0.5451,-16.1343 -2.3481,-27.9477"
               id="path54"
               style="fill:#6ec72e;fill-opacity:1;fill-rule:nonzero;stroke:none" /><path
               d="m 301.5797,639.5176 c 0.2745,2.0751 0.5103,4.0556 0.7112,5.9556 0.8159,-0.712 1.5111,-1.3776 2.0335,-1.8909 0.0629,-0.0622 0.1319,-0.1259 0.1949,-0.1881 -1.0062,-1.1911 -1.9903,-2.4846 -2.9396,-3.8766"
               id="path56"
               style="fill:#6ec72e;fill-opacity:1;fill-rule:nonzero;stroke:none" /><path
               d="m 322.1451,636.9033 -0.002,0 c -6.5993,0.002 -12.3162,4.8487 -16.0405,8.4933 -0.815,0.7992 -2.0251,1.9517 -3.4763,3.1057 0.7802,8.7489 0.6998,15.6041 -0.2563,20.8452 1.8644,-0.6515 3.8175,-1.6892 5.8958,-3.1449 4.2224,-2.9865 9.0082,-7.7263 14.5559,-14.418 l 0.4511,-0.5428 0.007,8e-4 c 2.5794,-3.142 5.3362,-6.7088 8.3,-10.7409 0.005,-0.0129 0.008,-0.0243 0.0129,-0.0372 -3.0457,-2.3633 -6.2188,-3.5612 -9.448,-3.5612"
               id="path58"
               style="fill:#00adef;fill-opacity:1;fill-rule:nonzero;stroke:none" /><path
               d="m 326.2804,651.5658 c 1.019,0.0681 1.9493,0.0907 2.7264,0.0989 0.1017,10e-4 0.2177,0.002 0.3291,0.004 0.1342,-1.5615 0.3601,-3.1797 0.6756,-4.8436 -1.2814,1.6709 -2.5211,3.2477 -3.7311,4.7407"
               id="path60"
               style="fill:#00adef;fill-opacity:1;fill-rule:nonzero;stroke:none" /><path
               d="m 328.9788,654.2047 c -1.245,-0.0141 -2.8592,-0.0578 -4.6478,-0.2632 -5.6334,6.7375 -10.5397,11.5273 -14.9183,14.5605 1.0448,0.498 2.2101,0.9218 3.4945,1.2765 l 0.6817,0.1707 c 3.1351,0.783 6.92,1.1651 11.5701,1.1651 3.2724,0 7.0452,-0.1993 11.2153,-0.5894 l 0.7013,-0.0652 0.006,0.007 c 4.0192,-0.3932 8.4721,-0.9615 13.4141,-1.7148 -1.6006,-12.8242 -12.9812,-14.4576 -21.517,-14.5472"
               id="path62"
               style="fill:#6ec72e;fill-opacity:1;fill-rule:nonzero;stroke:none" /><path
               d="m 147.5462,604.9686 c 1.2217,-0.216 2.9761,-0.4352 4.9838,-0.4352 5.845,0 8.6882,3.0343 8.6882,9.2766 0,6.0929 -2.8647,9.0552 -8.7593,9.0552 -2.477,0 -3.8868,-0.1031 -4.7724,-0.1789 -0.0704,-4.0928 -0.134,-12.2132 -0.1403,-17.7177 z m -9.4412,-26.4778 0.0122,0.5277 c 0,0.1721 0.2958,17.3628 0.2958,27.5333 0,5.0518 -0.0803,10.6292 -0.1444,15.1079 -0.0448,3.057 -0.0792,5.7001 -0.0792,7.328 l 0,0.4405 0.4372,0.0531 c 3.3127,0.3935 9.2113,0.8166 14.3477,0.8166 11.7092,0 17.8955,-5.701 17.8955,-16.4879 0,-10.6345 -6.0135,-16.4908 -16.9341,-16.4908 -2.0388,0 -4.2601,0.3328 -6.3895,0.7172 l 0,-19.1309"
               id="path64"
               style="fill:#104076;fill-opacity:1;fill-rule:nonzero;stroke:none" /><path
               d="m 172.8359,578.4878 0.006,0.5276 c 0.1137,7.9505 0.0956,14.3126 0.0815,19.4176 -10e-4,1.5732 -0.007,3.0396 -0.007,4.4172 0,1.4171 -0.0415,3.3444 -0.0763,5.2127 -0.0385,1.7552 -0.0718,3.4142 -0.0718,4.5605 0,3.1678 3.7051,3.5325 6.4921,3.5325 1.5634,0 2.4245,-0.9114 2.4245,-2.5673 0,-1.0713 -0.0588,-2.06 -0.1829,-3.1268 2.787,3.5438 6.1834,5.6941 9.0903,5.6941 1.543,0 2.4683,-0.2639 3.0861,-0.8856 0.8674,-0.7688 1.1021,-1.8432 0.6619,-6.3211 l -0.0458,-0.4822 -0.4847,0.0372 c -4.4462,0.3252 -7.7774,-0.9327 -11.9064,-4.5463 l 0,-25.0501"
               id="path66"
               style="fill:#104076;fill-opacity:1;fill-rule:nonzero;stroke:none" /><path
               d="m 211.1021,609.3146 c -6.4469,0 -7.7978,-6.5333 -7.7978,-12.0159 0,-5.4841 1.3509,-12.0174 7.7978,-12.0174 5.124,0 7.7231,4.0434 7.7231,12.0174 0,7.9725 -2.5991,12.0159 -7.7231,12.0159 z m 0,-30.8769 c -10.7152,0 -16.8611,6.9019 -16.8611,18.9338 0,11.9394 6.1459,18.7844 16.8611,18.7844 10.6687,0 16.7851,-6.845 16.7851,-18.7844 0,-12.0319 -6.1164,-18.9338 -16.7851,-18.9338"
               id="path68"
               style="fill:#104076;fill-opacity:1;fill-rule:nonzero;stroke:none" /><path
               d="m 245.8285,609.687 c -4.2489,0 -6.3166,-2.1632 -6.3166,-6.6131 0,-3.0169 1.0956,-6.6138 6.3166,-6.6138 5.6281,0 6.2385,4.5227 6.2385,6.4652 0,3.0851 -1.0789,6.7617 -6.2385,6.7617 z m -3.6621,-30.6594 c -3.1276,-1.7158 -4.5788,-3.631 -4.5788,-6.0156 0,-2.816 2.5241,-4.2428 7.5009,-4.2428 3.8236,0 10.2372,0.7718 10.2372,5.9442 0,1.894 -0.8295,3.6917 -6.8594,4.0231 l -6.2999,0.2911 z m 2.7015,-17.1005 c -5.9595,0 -10.4222,1.3322 -12.9084,3.8495 -1.5224,1.5406 -2.2791,3.4785 -2.2541,5.7592 0,4.5568 3.3778,7.5509 6.5721,8.8543 -3.6106,1.455 -4.0519,4.2914 -4.0519,5.578 0,2.3581 1.3398,4.4818 4.0845,6.4766 -3.3118,2.0684 -5.1937,5.8654 -5.1937,10.5549 0,8.2386 5.6387,13.1563 15.0829,13.1563 3.0464,0 5.0056,-0.0629 6.7389,-0.1175 1.2889,-0.044 2.3959,-0.0797 3.6909,-0.0797 1.668,0 3.443,0.06 5.7562,0.1972 l 0.4542,0.0265 0.0652,-0.4511 c 0.4633,-3.1587 0.5542,-4.5416 -0.4352,-5.5296 -0.8181,-0.7544 -1.897,-0.815 -4.1694,-0.4829 l 0.0789,-0.0417 0.0652,-0.091 c 1.433,-1.9319 2.0942,-4.0989 2.0942,-6.811 0,-7.6767 -5.7707,-12.6384 -14.7099,-12.6384 -1.295,0 -2.9956,0.1934 -4.3157,0.4807 -1.6301,-1.3397 -1.6301,-2.2639 -1.6301,-2.5755 0,-0.6741 0.2548,-1.3428 3.305,-1.5043 l 6.8185,-0.4436 c 9.0029,-0.4799 13.5718,-4.1329 13.5718,-10.8589 0,-8.8293 -6.2976,-13.308 -18.7101,-13.308"
               id="path70"
               style="fill:#104076;fill-opacity:1;fill-rule:nonzero;stroke:none" /><path
               d="m 267.6837,578.4878 0.0121,0.5276 c 0.1122,7.9551 0.094,14.3179 0.0788,19.4282 -0.008,1.5664 -0.0114,3.0313 -0.0114,4.4066 0,1.4171 -0.0356,3.3444 -0.0735,5.2127 -0.0326,1.7552 -0.0682,3.4142 -0.0682,4.5605 0,3.1678 3.7091,3.5325 6.4879,3.5325 1.5634,0 2.4194,-0.9114 2.4194,-2.5673 0,-1.0713 -0.0485,-2.0585 -0.1767,-3.1268 2.7864,3.5438 6.1801,5.6941 9.0908,5.6941 1.5437,0 2.4688,-0.2639 3.089,-0.8856 0.862,-0.7688 1.1001,-1.8432 0.6604,-6.3211 l -0.0478,-0.4822 -0.4822,0.0372 c -4.4484,0.3252 -7.783,-0.9327 -11.9053,-4.5463 l 0,-25.0501"
               id="path72"
               style="fill:#104076;fill-opacity:1;fill-rule:nonzero;stroke:none" /><path
               d="m 306.5421,609.3882 c -4.208,0 -7.422,-3.4293 -7.9732,-8.4039 l 14.0866,0.138 c 0.0645,3.007 -0.5793,5.2407 -1.9213,6.6441 -1.0281,1.0752 -2.4399,1.6218 -4.1921,1.6218 z m 0.2214,-30.8762 c -11.2282,0 -17.6729,6.3628 -17.6729,17.4546 0,12.6399 6.5266,20.1893 17.4515,20.1893 9.9476,0 14.788,-5.3924 14.788,-16.4893 0,-2.8001 -1.364,-4.0496 -4.4173,-4.0496 l -18.4705,0 c -0.0606,-3.5742 0.6733,-6.102 2.2291,-7.7177 1.5846,-1.6339 4.0374,-2.3959 7.7208,-2.3959 4.741,0 8.9535,1.2813 10.1363,1.6763 l 0.4701,0.157 0.16,-0.4701 c 1.0069,-3.0169 1.0145,-4.0139 0.0447,-5.0807 -1.6096,-1.5239 -5.8055,-3.2739 -12.4398,-3.2739"
               id="path74"
               style="fill:#104076;fill-opacity:1;fill-rule:nonzero;stroke:none" /><path
               d="m 336.0862,578.4377 c -5.5751,0 -10.025,1.527 -11.5315,3.0351 -0.8765,0.7771 -0.8765,2.1601 0.0242,5.0868 l 0.1487,0.4677 0.4647,-0.138 c 2.0457,-0.6019 6.077,-1.608 10.1531,-1.608 3.0768,0 4.9806,1.5679 4.9806,4.0942 0,2.7447 -2.8948,3.8486 -6.2551,5.1269 -4.503,1.7113 -10.1061,3.8449 -10.1061,11.0152 0,6.6623 4.6167,10.6383 12.345,10.6383 5.4848,0 9.4525,-1.8515 10.7786,-3.0965 1.2055,-1.2025 0.5899,-3.1495 -0.2578,-5.0769 l -0.1774,-0.4072 -0.4223,0.1327 c -4.2452,1.3284 -7.0588,1.6066 -8.6632,1.6066 -3.0108,0 -4.5379,-1.2274 -4.5379,-3.6484 0,-2.4134 2.6416,-3.4073 5.9837,-4.6622 4.619,-1.7423 10.3768,-3.9055 10.3768,-11.2585 0,-7.1847 -4.8449,-11.3078 -13.3041,-11.3078"
               id="path76"
               style="fill:#104076;fill-opacity:1;fill-rule:nonzero;stroke:none" /><path
               d="m 364.0721,578.4377 c -5.5751,0 -10.0189,1.527 -11.5292,3.0351 -0.8765,0.7771 -0.8765,2.1601 0.0265,5.0868 l 0.1395,0.4677 0.4709,-0.138 c 2.0471,-0.6019 6.08,-1.608 10.1538,-1.608 3.0745,0 4.9852,1.5679 4.9852,4.0942 0,2.7447 -2.9009,3.8486 -6.2575,5.1269 -4.5075,1.7113 -10.106,3.8449 -10.106,11.0152 0,6.6623 4.6167,10.6383 12.345,10.6383 5.4803,0 9.4525,-1.8515 10.7702,-3.0965 1.2093,-1.2025 0.596,-3.1495 -0.2494,-5.0769 l -0.182,-0.4072 -0.42,0.1327 c -4.2429,1.3284 -7.0551,1.6066 -8.6625,1.6066 -3.0093,0 -4.5408,-1.2274 -4.5408,-3.6484 0,-2.4134 2.6378,-3.4073 5.9799,-4.6622 4.6288,-1.7423 10.3843,-3.9055 10.3843,-11.2585 0,-7.1847 -4.8487,-11.3078 -13.3079,-11.3078"
               id="path78"
               style="fill:#104076;fill-opacity:1;fill-rule:nonzero;stroke:none" /><path
               d="m 385.9916,620.0515 c -3.2951,0 -3.8258,1.6506 -3.8258,5.6046 0,3.6803 4.7167,3.6803 6.2718,3.6803 2.1715,0 3.2299,-0.8628 3.2299,-2.643 0,-5.8617 -1.138,-6.6419 -5.6759,-6.6419 z m -3.7523,-41.5637 0,0.5193 c 0,1.4747 0.0281,4.6129 0.0546,8.2887 0.0387,5.1087 0.0895,11.4677 0.0895,15.6295 0,1.6567 -0.0349,3.4907 -0.0736,5.2581 -0.0379,1.6256 -0.0705,3.1617 -0.0705,4.44 0,3.1678 3.4513,3.5325 6.0451,3.5325 2.0798,0 3.0912,-0.8628 3.0912,-2.6439 0,-10.7027 0,-26.8789 -0.0773,-34.1379 l 0,-0.4663"
               id="path80"
               style="fill:#104076;fill-opacity:1;fill-rule:nonzero;stroke:none" /><path
               d="m 408.103,578.4635 c -0.5064,0 -0.8628,0.0175 -1.0895,0.0554 l -0.2927,0.0515 -11.7961,33.8188 c -0.3047,0.8939 -0.2517,1.6467 0.1714,2.2321 0.756,1.063 2.6484,1.5346 6.1513,1.5346 1.8257,0 2.5817,-0.5611 2.9926,-2.2261 l 7.4569,-26.0722 7.8072,25.2837 c 0.7271,2.3671 2.0858,3.0146 6.3226,3.0146 1.1138,0 1.8879,-0.3147 2.3155,-0.9341 0.4489,-0.6619 0.4527,-1.5945 0,-2.775 l -12.3996,-33.5352 -0.3169,-0.0265 c -0.1986,-0.0183 -4.9806,-0.4216 -7.3227,-0.4216"
               id="path82"
               style="fill:#104076;fill-opacity:1;fill-rule:nonzero;stroke:none" /><path
               d="m 445.6749,609.3882 c -4.2065,0 -7.4312,-3.4293 -7.974,-8.4039 l 14.085,0.138 c 0.063,3.007 -0.5792,5.2407 -1.9212,6.6441 -1.0281,1.0752 -2.4376,1.6218 -4.1898,1.6218 z m 0.2236,-30.8762 c -11.2387,0 -17.6774,6.3628 -17.6774,17.4546 0,12.6399 6.522,20.1893 17.4538,20.1893 9.9491,0 14.7818,-5.3924 14.7818,-16.4893 0,-2.8001 -1.3625,-4.0496 -4.4172,-4.0496 l -18.4766,0 c -0.0554,-3.5742 0.6808,-6.102 2.2389,-7.7177 1.5817,-1.6339 4.0375,-2.3959 7.7231,-2.3959 4.7342,0 8.9536,1.2813 10.1341,1.6763 l 0.4738,0.157 0.1532,-0.4701 c 1.0039,-3.0169 1.0115,-4.0139 0.0417,-5.0807 -1.5998,-1.5239 -5.7979,-3.2739 -12.4292,-3.2739"
               id="path84"
               style="fill:#104076;fill-opacity:1;fill-rule:nonzero;stroke:none" /><path
               d="m 303.802,568.2407 c 0.715,0 0.7923,-0.4496 0.6073,-1.1631 l -4.5719,-16.738 c 0,0 -2.3542,-0.37 -3.7812,-0.1851 0,0 -2.9092,13.4589 -2.9092,14.1989 0,-0.7665 -2.8281,-14.0138 -2.8281,-14.0138 0,0 -2.6719,-0.37 -3.7834,-0.1851 l -3.9646,16.7381 c -0.2388,1.0046 0.0265,1.3481 2.035,1.3481 0.7665,0 0.9781,-0.185 1.11,-0.9531 l 2.9092,-14.3831 2.7773,14.1192 c 0.1312,0.8204 0.6869,1.217 2.4581,1.217 0.9773,0 1.2419,-0.0796 1.3761,-0.7946 l 2.9077,-14.5416 3.305,14.1731 c 0.1327,0.9516 0.4231,1.1631 2.3527,1.1631"
               id="path86"
               style="fill:#104076;fill-opacity:1;fill-rule:nonzero;stroke:none" /><path
               d="m 312.4766,555.7858 c -2.8281,0.3176 -4.7304,-0.1843 -4.7304,-2.0093 0,-1.1365 0.793,-1.64 1.6119,-1.64 1.3215,0 2.5104,1.0584 3.0919,1.9046 l 0.0266,1.7447 z m 0.2669,-3.2777 -0.0819,0.1068 c -0.7931,-1.3496 -2.0881,-2.4868 -4.2027,-2.4868 -1.8781,0 -3.6773,1.1099 -3.6773,3.5969 0,3.3034 2.9107,4.3353 7.6684,3.8076 l 0,1.0569 c 0,1.9297 -0.8188,2.5112 -2.3261,2.5112 -1.5323,0 -3.2792,-0.2911 -4.0716,-0.4231 -0.2903,0.8985 -0.37,1.1904 -0.0796,1.5073 0.37,0.3427 2.2466,1.057 4.6539,1.057 3.0146,0 4.7069,-1.32 4.7069,-4.4408 0,-6.7965 -0.0797,-7.51 0.1584,-8.5146 -0.3169,-0.0523 -1.245,-0.1053 -1.903,-0.1053 -0.8197,0 -1.2185,0.423 -1.1389,1.6384"
               id="path88"
               style="fill:#104076;fill-opacity:1;fill-rule:nonzero;stroke:none" /><path
               d="m 321.0207,559.673 c 0,-2.3277 5.8435,-1.3473 5.8435,-5.6842 0,-2.4323 -1.5854,-3.8607 -4.575,-3.8607 -1.9311,0 -3.49,0.5291 -3.9919,1.0311 -0.2381,0.2115 -0.2646,0.6089 0.0523,1.6392 0.8992,-0.2631 2.2996,-0.5823 3.6757,-0.5823 1.1631,0 1.9562,0.6089 1.9562,1.6392 0,2.5385 -5.8427,1.455 -5.8427,5.7654 0,2.3012 1.6119,3.6212 4.2285,3.6212 1.9311,0 3.305,-0.6596 3.7304,-1.057 0.2911,-0.2904 0.2373,-0.7665 -0.132,-1.6134 -0.4231,0.1327 -1.8788,0.5823 -3.1473,0.5823 -1.2176,0 -1.7977,-0.555 -1.7977,-1.4808"
               id="path90"
               style="fill:#104076;fill-opacity:1;fill-rule:nonzero;stroke:none" /><path
               d="m 328.2668,561.1007 c -0.1584,1.2958 -0.1584,1.6665 0.0796,1.9046 0.2109,0.2116 0.4754,0.2639 1.8235,0.2116 l 0.185,1.9569 c 0.1054,0.8461 1.1123,1.1623 1.7181,1.1623 0.6096,0 0.8977,-0.185 0.8977,-0.7143 l 0,-2.458 3.0942,0.0781 c 0.135,-1.2404 0.1062,-1.7189 -0.1584,-1.9562 -0.2108,-0.2107 -0.7135,-0.2107 -2.9358,-0.1319 l -0.0242,-7.1908 c 0,-1.4549 0.4761,-1.7734 1.6126,-1.7734 0.3716,0 1.0835,0.1584 1.3474,0.2388 0.2934,-1.0577 0.2123,-1.3754 -0.0523,-1.6392 -0.3178,-0.2912 -1.1101,-0.6347 -2.6697,-0.6347 -1.9046,0 -3.0942,0.7931 -3.0676,2.9881 l 0.0265,8.0112"
               id="path92"
               style="fill:#104076;fill-opacity:1;fill-rule:nonzero;stroke:none" /><path
               d="m 346.2468,557.8753 c 0.1062,2.3277 -0.9273,3.3058 -2.3542,3.3058 -1.6916,0 -2.9069,-1.455 -3.0412,-3.3581 l 5.3954,0.0523 z m 2.7508,-0.3427 c 0,-0.9273 -0.4254,-1.2708 -1.4035,-1.2708 -1.6385,0 -5.3931,0 -6.7669,0 -0.1062,-3.0669 1.3215,-3.966 3.7265,-3.966 1.64,0 3.12,0.4237 3.6773,0.6087 0.3685,-1.1115 0.3147,-1.348 0.0508,-1.6392 -0.5027,-0.4761 -1.9561,-1.1108 -4.3081,-1.1108 -3.5984,0 -6.1353,1.8782 -6.1353,6.0551 0,4.7334 2.5126,7.0323 6.0542,7.0323 3.1731,0 5.105,-1.5596 5.105,-5.7093"
               id="path94"
               style="fill:#104076;fill-opacity:1;fill-rule:nonzero;stroke:none" /><path
               d="m 359.5486,563.6657 c 0,-3.7811 7.9589,-2.5392 7.9589,-8.4076 0,-3.2535 -1.797,-5.1036 -5.7919,-5.1036 -2.6431,0 -4.625,0.7401 -5.1285,1.242 -0.2654,0.2646 -0.3177,0.74 0.1585,1.8523 1.4019,-0.3973 2.8554,-0.8204 4.5742,-0.8204 1.9311,0 3.0935,0.7665 3.0935,2.6439 0,3.9403 -7.9323,2.565 -7.9323,8.5146 0,3.1715 2.22,4.7592 5.6577,4.7592 2.3011,0 4.1246,-0.8204 4.5476,-1.1897 0.2912,-0.3169 0.2647,-0.7407 -0.2888,-1.7726 -0.7688,0.1592 -2.2223,0.6885 -3.9396,0.6885 -1.9554,0 -2.9093,-0.9789 -2.9093,-2.4066"
               id="path96"
               style="fill:#104076;fill-opacity:1;fill-rule:nonzero;stroke:none" /><path
               d="m 375.5194,561.1538 c -1.8758,0 -2.96,-1.4542 -2.96,-4.4681 0,-3.0138 1.0842,-4.4696 2.96,-4.4696 1.8788,0 2.9357,1.4558 2.9357,4.4696 0,3.0139 -1.0569,4.4681 -2.9357,4.4681 z m 0,-11.0257 c -3.2254,0 -5.8427,1.9046 -5.8427,6.5849 0,4.6781 2.6454,6.5289 5.8427,6.5289 3.2004,0 5.8169,-1.8508 5.8169,-6.5289 0,-4.6803 -2.59,-6.5849 -5.8169,-6.5849"
               id="path98"
               style="fill:#104076;fill-opacity:1;fill-rule:nonzero;stroke:none" /><path
               d="m 388.8212,550.5776 c -0.2107,-0.238 -0.9773,-0.3964 -1.7431,-0.3964 -2.0903,0 -2.9099,0.793 -2.9099,2.6172 0,1.2692 0.0796,4.0458 0.0796,7.0596 0,3.2535 -0.0796,6.9815 -0.0796,8.5669 0,0.7143 0.5815,1.0577 2.035,1.0577 0.6626,0 0.9007,-0.2381 0.9007,-0.74 -0.0258,-2.4846 -0.1061,-8.303 -0.1584,-15.3877 0,-0.5823 0.0788,-0.8196 0.2911,-1.0326 0.2896,-0.2896 0.8977,-0.2896 1.7173,-0.2116 0.185,-1.0046 0.132,-1.2692 -0.1327,-1.5331"
               id="path100"
               style="fill:#104076;fill-opacity:1;fill-rule:nonzero;stroke:none" /><path
               d="m 394.0832,562.3965 c 0,-1.057 -0.0774,-4.8374 -0.0774,-7.2446 0,-2.142 0.6346,-2.7773 1.982,-2.7773 1.163,0 2.2746,0.8203 3.3057,1.985 l 0,7.8003 c 0,0.74 0.6081,1.082 2.0881,1.082 0.6346,0 0.8196,-0.2631 0.8196,-0.7401 0,-0.8461 -0.0265,-4.0177 -0.0265,-7.1649 0,-3.1208 -0.0266,-3.8873 0.1849,-5.0504 -0.2911,-0.0523 -1.1099,-0.1053 -1.718,-0.1053 -0.925,0 -1.4277,0.5814 -1.295,1.7968 l 0.2108,0.5042 -0.0789,0.0782 c -1.2419,-1.5597 -2.7507,-2.4323 -4.6796,-2.4323 -2.4073,0 -3.6227,1.4815 -3.6227,4.4688 0,4.5211 0,6.9792 0,7.563 0,0.7135 0.6081,1.082 2.0896,1.082 0.6347,0 0.8174,-0.3162 0.8174,-0.8454"
               id="path102"
               style="fill:#104076;fill-opacity:1;fill-rule:nonzero;stroke:none" /><path
               d="m 404.6365,561.1007 c -0.1584,1.2958 -0.1584,1.6665 0.0789,1.9046 0.2123,0.2116 0.4762,0.2639 1.8242,0.2116 l 0.185,1.9569 c 0.1054,0.8461 1.11,1.1623 1.7174,1.1623 0.6103,0 0.9007,-0.185 0.9007,-0.7143 l 0,-2.458 3.0942,0.0781 c 0.1304,-1.2404 0.1046,-1.7189 -0.1585,-1.9562 -0.2107,-0.2107 -0.7157,-0.2107 -2.9357,-0.1319 l -0.0258,-7.1908 c 0,-1.4549 0.4754,-1.7734 1.6119,-1.7734 0.37,0 1.0835,0.1584 1.3496,0.2388 0.2889,-1.0577 0.2116,-1.3754 -0.0523,-1.6392 -0.3192,-0.2912 -1.1122,-0.6347 -2.6719,-0.6347 -1.9053,0 -3.0942,0.7931 -3.0677,2.9881 l 0.0258,8.0112"
               id="path104"
               style="fill:#104076;fill-opacity:1;fill-rule:nonzero;stroke:none" /><path
               d="m 415.0011,550.1545 c 0,1.2685 0.0523,6.002 0.0523,8.5412 0,1.1358 -0.0523,2.5111 -0.0523,3.4642 0,0.6854 0.5285,1.082 1.9843,1.082 0.6603,0 0.9249,-0.2366 0.9249,-0.7674 0,-3.7265 0,-9.5964 -0.0272,-12.188 l -2.882,-0.132 z m 2.0366,17.795 c 0.6869,0 0.978,-0.2381 0.978,-0.7672 0,-1.9828 -0.3176,-2.1943 -1.8522,-2.1943 -0.9516,0 -1.1889,0.3435 -1.1889,1.825 0,0.7392 0.6073,1.1365 2.0631,1.1365"
               id="path106"
               style="fill:#104076;fill-opacity:1;fill-rule:nonzero;stroke:none" /><path
               d="m 426.6888,561.1538 c -1.8766,0 -2.9608,-1.4542 -2.9608,-4.4681 0,-3.0138 1.0842,-4.4696 2.9608,-4.4696 1.878,0 2.9357,1.4558 2.9357,4.4696 0,3.0139 -1.0577,4.4681 -2.9357,4.4681 z m 0,-11.0257 c -3.2269,0 -5.8427,1.9046 -5.8427,6.5849 0,4.6781 2.6423,6.5289 5.8427,6.5289 3.1996,0 5.8184,-1.8508 5.8184,-6.5289 0,-4.6803 -2.5923,-6.5849 -5.8184,-6.5849"
               id="path108"
               style="fill:#104076;fill-opacity:1;fill-rule:nonzero;stroke:none" /><path
               d="m 443.5868,551.5565 0,6.6623 c 0,1.9561 -0.5573,2.7492 -1.85,2.7492 -1.1388,0 -2.4065,-0.8984 -3.4377,-1.8242 l 0,-8.8573 -2.8834,-0.132 c 0.0273,2.4059 0.0273,5.2878 0.0273,7.6685 0,1.8242 -0.0539,3.4885 -0.0539,4.3369 0,0.74 0.6612,1.082 2.1427,1.082 0.5012,0 0.6877,-0.2889 0.6877,-0.7401 0,-0.4488 -0.0531,-0.9257 -0.1319,-1.4792 l 0.0788,-0.0546 c 1.0577,1.0335 2.6173,2.2739 4.6516,2.2739 2.4604,0 3.6765,-1.5051 3.6765,-4.4674 0,-6.5584 -0.0804,-7.3249 0.1342,-8.488 -0.2934,-0.0523 -1.1123,-0.1053 -1.7204,-0.1053 -0.925,0 -1.3215,0.5814 -1.3215,1.3753"
               id="path110"
               style="fill:#104076;fill-opacity:1;fill-rule:nonzero;stroke:none" /><path
               d="m 452.209,559.673 c 0,-2.3277 5.8427,-1.3473 5.8427,-5.6842 0,-2.4323 -1.5884,-3.8607 -4.5764,-3.8607 -1.9289,0 -3.4885,0.5291 -3.9912,1.0311 -0.2374,0.2115 -0.2654,0.6089 0.053,1.6392 0.8985,-0.2631 2.2997,-0.5823 3.6758,-0.5823 1.1631,0 1.9554,0.6089 1.9554,1.6392 0,2.5385 -5.8427,1.455 -5.8427,5.7654 0,2.3012 1.6127,3.6212 4.2308,3.6212 1.9296,0 3.3042,-0.6596 3.7288,-1.057 0.2889,-0.2904 0.2358,-0.7665 -0.1327,-1.6134 -0.4246,0.1327 -1.8781,0.5823 -3.1465,0.5823 -1.2177,0 -1.797,-0.555 -1.797,-1.4808"
               id="path112"
               style="fill:#104076;fill-opacity:1;fill-rule:nonzero;stroke:none" /></g></g></g></g></g></svg>